<svg xmlns="http://www.w3.org/2000/svg" viewBox="0 0 500 500"><title>express-icon</title><g id="Layer_2" data-name="Layer 2"><g id="original"><path d="M373,317.61c-8.95,2.27-14.48.1-19.45-7.36-11.14-16.7-23.44-32.63-35.31-48.86-1.54-2.1-3.12-4.16-5.11-6.77-14.05,19-28.08,37-41.24,55.79-4.71,6.71-9.66,9.63-18.45,7.26l52.83-70.9-49.18-64c8.46-1.65,14.31-.81,19.49,6.77C288,206.23,300.63,222.15,313.21,239c12.66-16.77,25.12-32.71,36.89-49.27,4.73-6.71,9.81-9.26,18.31-6.79-6.44,8.54-12.74,16.94-19.07,25.28-8.56,11.24-17,22.62-25.83,33.63-3.16,3.92-2.65,6.47.18,10.18C340.09,273.58,356.3,295.36,373,317.61Z"/><path d="M127.06,245.6c1.41-7.09,2.35-14.31,4.32-21.25,11.77-42,60-59.54,93.2-33.48C244,206.16,248.83,227.7,247.87,252H138.38c-1.65,43.58,29.73,69.9,69.72,56.47,14-4.7,22.29-15.69,26.43-29.43,2.1-6.89,5.57-8,12.05-6-3.32,17.19-10.84,31.55-26.53,40.54-23.55,13.46-57.16,9.1-74.84-9.6-10.44-11-14.87-24.66-16.84-39.44-.29-2.35-.9-4.67-1.37-7Q127.06,251.56,127.06,245.6Zm11.52-2.93h98.95c-.65-31.51-20.27-53.9-47.09-54.1C161,188.34,139.85,210.2,138.58,242.67Z"/></g></g></svg>