<?xml version="1.0" encoding="utf-8"?>
<!-- Generator: Adobe Illustrator 21.1.0, SVG Export Plug-In . SVG Version: 6.00 Build 0)  -->
<svg version="1.1" id="Layer_1" xmlns="http://www.w3.org/2000/svg" xmlns:xlink="http://www.w3.org/1999/xlink" x="0px" y="0px"
	 viewBox="0 0 2424 2300.3" style="enable-background:new 0 0 2424 2300.3;" xml:space="preserve">
<style type="text/css">
	.st0{fill:#020202;}
</style>
<g>
	<path class="st0" d="M1676.1,1604.7c89.3-9.3,156.8-86,153.5-178c-3.3-92-80.1-166.1-172-166.1h-6c-95.3,3.3-168.7,82.7-166.1,178
		c3.3,46.3,21.8,86,49,113.8c-104.5,205.8-264,356.7-504.2,482.4c-162.8,86-332.2,117.1-500.9,95.3
		c-138.3-18.5-246.2-80.1-313.6-181.3c-98.6-150.9-107.9-313.6-24.5-476.4c58.2-117.1,150.9-203.1,209.1-246.2
		c-12.6-39.7-30.4-107.9-39.7-156.8c-445.3,322.9-399.7,759-264,965.4c101.2,153.5,307,248.8,534.7,248.8c61.5,0,123.1-6,184.6-21.8
		C1208.9,2185.7,1507.4,1952.1,1676.1,1604.7z M2217.4,1223.6c-233.6-273.3-577.7-424.2-971.4-424.2h-49c-27.8-55.6-86-92-150.9-92
		h-6c-95.3,3.3-168.7,82.7-166.1,178c3.3,92,80.1,166.1,172,166.1h6c67.5-3.3,125.7-46.3,150.9-104.5h55.6
		c233.6,0,454.6,67.5,654.4,199.8c153.5,101.2,264,233.6,325.6,393.7c52.3,129,49,255.4-6,362.6c-86,162.8-230.3,252.1-420.8,252.1
		c-123.1,0-239.5-37.1-301.1-64.8c-33.7,30.4-95.3,80.1-138.3,110.5c132.3,61.5,267.3,95.3,396.4,95.3
		c295.1,0,513.5-162.8,596.2-325.6C2453.6,1792.7,2447.7,1485,2217.4,1223.6z M655.8,1657c3.3,92,80.1,166.1,172,166.1h6
		c95.3-3.3,168.7-82.7,166.1-178c-3.3-92-80.1-166.1-172-166.1h-6c-6,0-15.2,0-21.8,3.3c-125.7-209.1-178-436.7-160.1-682.2
		c12.6-184.6,73.4-344.1,181.3-476.4c89.3-113.8,261.4-168.7,377.8-172c325.6-6,463.9,399.7,473.1,562.4
		c39.7,9.3,107.9,30.4,153.5,46.3C1788.6,262.8,1481.6,4.1,1186.4,4.1c-276.6,0-532,199.8-633.3,495
		c-141.6,393.7-49,771.5,123.1,1069.3C661.7,1589.5,652.5,1623.3,655.8,1657z"/>
</g>
</svg>
